<svg width="35" height="35" viewBox="0 0 35 35" fill="none" xmlns="http://www.w3.org/2000/svg">
<path d="M34.4167 19.8334H33.8333V18.0834C33.8318 16.925 33.145 15.8774 32.0833 15.414V6.41671C32.0832 6.18483 31.9458 5.97512 31.7333 5.88237C31.9609 5.51764 32.0821 5.09662 32.0833 4.66671C32.0833 3.37805 31.0387 2.33337 29.75 2.33337C28.4613 2.33337 27.4167 3.37805 27.4167 4.66671C27.4191 5.07752 27.5311 5.48024 27.741 5.83337H7.259C7.46893 5.48024 7.58093 5.07752 7.58333 4.66671C7.58333 3.37805 6.53866 2.33337 5.25 2.33337C3.96134 2.33337 2.91667 3.37805 2.91667 4.66671C2.91791 5.09662 3.03909 5.51764 3.26667 5.88237C3.05419 5.97512 2.91681 6.18483 2.91667 6.41671V15.414C1.855 15.8774 1.1682 16.925 1.16667 18.0834V19.8334H0.583333C0.261187 19.8334 0 20.0946 0 20.4167V28.5834C0 28.9055 0.261187 29.1667 0.583333 29.1667H1.16667V32.0834C1.16667 32.4055 1.42785 32.6667 1.75 32.6667H4.08333C4.40548 32.6667 4.66667 32.4055 4.66667 32.0834V29.1667H30.3333V32.0834C30.3333 32.4055 30.5945 32.6667 30.9167 32.6667H33.25C33.5721 32.6667 33.8333 32.4055 33.8333 32.0834V29.1667H34.4167C34.7388 29.1667 35 28.9055 35 28.5834V20.4167C35 20.0946 34.7388 19.8334 34.4167 19.8334ZM29.75 3.50004C30.3944 3.50004 30.9167 4.02234 30.9167 4.66671C30.9167 5.31107 30.3944 5.83337 29.75 5.83337C29.1056 5.83337 28.5833 5.31107 28.5833 4.66671C28.5833 4.02234 29.1056 3.50004 29.75 3.50004ZM5.25 3.50004C5.89436 3.50004 6.41667 4.02234 6.41667 4.66671C6.41667 5.31107 5.89436 5.83337 5.25 5.83337C4.60564 5.83337 4.08333 5.31107 4.08333 4.66671C4.08333 4.02234 4.60564 3.50004 5.25 3.50004ZM4.08333 7.00004H30.9167V15.1667H28.5682C28.9542 14.6648 29.1646 14.0499 29.1667 13.4167V12.25C29.1648 10.64 27.86 9.33527 26.25 9.33337H21.5833C19.9733 9.33527 18.6686 10.64 18.6667 12.25V13.4167C18.6688 14.0499 18.8791 14.6648 19.2652 15.1667H15.7348C16.1209 14.6648 16.3312 14.0499 16.3333 13.4167V12.25C16.3314 10.64 15.0267 9.33527 13.4167 9.33337H8.75C7.14 9.33527 5.83523 10.64 5.83333 12.25V13.4167C5.83545 14.0499 6.04581 14.6648 6.43183 15.1667H4.08333V7.00004ZM28 12.25V13.4167C28 14.3832 27.2165 15.1667 26.25 15.1667H21.5833C20.6168 15.1667 19.8333 14.3832 19.8333 13.4167V12.25C19.8333 11.2835 20.6168 10.5 21.5833 10.5H26.25C27.2165 10.5 28 11.2835 28 12.25ZM15.1667 12.25V13.4167C15.1667 14.3832 14.3832 15.1667 13.4167 15.1667H8.75C7.78349 15.1667 7 14.3832 7 13.4167V12.25C7 11.2835 7.78349 10.5 8.75 10.5H13.4167C14.3832 10.5 15.1667 11.2835 15.1667 12.25ZM2.33333 18.0834C2.33333 17.1169 3.11682 16.3334 4.08333 16.3334H30.9167C31.8832 16.3334 32.6667 17.1169 32.6667 18.0834V19.8334H2.33333V18.0834ZM3.5 31.5H2.33333V29.1667H3.5V31.5ZM32.6667 31.5H31.5V29.1667H32.6667V31.5ZM33.8333 28H1.16667V21H33.8333V28Z" fill="#92C100"/>
<path d="M5.24968 25.6666H2.91634C2.5942 25.6666 2.33301 25.9278 2.33301 26.25C2.33301 26.5721 2.5942 26.8333 2.91634 26.8333H5.24968C5.57182 26.8333 5.83301 26.5721 5.83301 26.25C5.83301 25.9278 5.57182 25.6666 5.24968 25.6666Z" fill="#92C100"/>
<path d="M32.0833 25.6666H7.58333C7.26119 25.6666 7 25.9278 7 26.25C7 26.5721 7.26119 26.8333 7.58333 26.8333H32.0833C32.4055 26.8333 32.6667 26.5721 32.6667 26.25C32.6667 25.9278 32.4055 25.6666 32.0833 25.6666Z" fill="#92C100"/>
</svg>
