<svg width="35" height="35" viewBox="0 0 35 35" fill="none" xmlns="http://www.w3.org/2000/svg">
<path d="M31.9143 20.4208C32.2348 20.4208 32.4946 20.161 32.4946 19.8405V18.0998C33.4542 18.0955 34.2308 17.3186 34.2353 16.359C34.2353 15.3976 33.4559 14.6182 32.4946 14.6182V12.5102C34.0747 11.6778 35.0451 10.0206 34.9984 8.23533C34.9984 5.67601 33.1757 3.59325 30.9365 3.59325C28.6974 3.59325 26.8747 5.67601 26.8747 8.23533C26.8404 9.87412 27.6474 11.4163 29.013 12.3221V14.6182H25.5314V0.691954C25.5314 0.371508 25.2716 0.111694 24.9512 0.111694H22.6301C22.3097 0.111694 22.0499 0.371508 22.0499 0.691954V14.6182C21.0902 14.6227 20.3136 15.3996 20.3091 16.359C20.3091 17.3206 21.0885 18.0998 22.0499 18.0998V23.3221C21.0885 23.3221 20.3091 24.1015 20.3091 25.0629C20.3091 26.0245 21.0885 26.8037 22.0499 26.8037V30.8655C22.0499 31.1859 22.3097 31.4457 22.6301 31.4457H24.9512C25.2716 31.4457 25.5314 31.1859 25.5314 30.8655V26.8037H30.1735V27.3839C30.1696 30.9077 27.3142 33.7631 23.7907 33.7668H19.1486C16.5198 33.7679 14.16 32.1549 13.2066 29.705H14.5065C16.1082 29.7033 17.4058 28.4053 17.4078 26.8037V5.91429C17.4058 4.31291 16.1082 3.01498 14.5065 3.01299H2.9013C1.29964 3.01498 0.00198331 4.31291 0 5.91429V26.8037C0.00198331 28.4053 1.29964 29.7033 2.9013 29.705H11.9755C12.9788 32.8188 15.8773 34.929 19.1486 34.9273H23.7907C27.9548 34.9225 31.3292 31.548 31.334 27.3839V26.8037H32.4946C33.4559 26.8037 34.2353 26.0245 34.2353 25.0629C34.2353 24.1015 33.4559 23.3221 32.4946 23.3221H31.334V20.4208H31.9143ZM1.16052 26.8037V5.91429C1.16052 4.95296 1.93996 4.17351 2.9013 4.17351H14.5065C15.4678 4.17351 16.2473 4.95296 16.2473 5.91429V26.8037C16.2473 27.7653 15.4678 28.5444 14.5065 28.5444H2.9013C1.93996 28.5444 1.16052 27.7653 1.16052 26.8037ZM31.334 19.2603H30.1735V12.7921C30.2495 12.8128 30.3271 12.8273 30.4056 12.8352C30.5818 12.8635 30.76 12.8774 30.9382 12.8768C31.0705 12.8768 31.2029 12.8686 31.334 12.8519V19.2603ZM33.0748 16.359C33.0751 16.5157 33.0108 16.6655 32.8966 16.7729C32.7909 16.8806 32.6456 16.9407 32.4946 16.9392V15.7787C32.815 15.7787 33.0748 16.0385 33.0748 16.359ZM27.9517 7.33208C28.2837 5.84885 29.4139 4.75377 30.7538 4.75377C32.0937 4.75377 33.2239 5.84885 33.5559 7.33208C32.9006 6.44072 31.8602 5.91429 30.7538 5.91429C29.6474 5.91429 28.607 6.44072 27.9517 7.33208ZM28.4327 9.39585C28.435 8.23703 29.2921 7.25728 30.4404 7.1006C31.5888 6.9442 32.6767 7.65904 32.989 8.77508C33.3012 9.8914 32.7422 11.0669 31.6794 11.529C31.6593 11.5384 31.64 11.5489 31.6213 11.5602C31.582 11.5764 31.5417 11.5894 31.5006 11.5999L31.4726 11.6078L31.4508 11.6132L31.2343 11.6713C31.1918 11.6818 31.1487 11.6888 31.1054 11.6925C31.0229 11.7053 30.9399 11.7135 30.8563 11.7169C30.7552 11.7129 30.6543 11.7033 30.554 11.688C30.5183 11.6843 30.4826 11.6775 30.4481 11.6676L30.2444 11.6155H30.2333L29.9826 11.522C29.9061 11.4939 29.8245 11.4823 29.7429 11.4882C28.943 11.0978 28.435 10.2861 28.4327 9.39585ZM23.2104 1.27221H24.3709V14.6182H23.2104V1.27221ZM21.4696 16.359C21.4693 16.2026 21.5337 16.0527 21.6478 15.9453C21.7535 15.8376 21.8989 15.7776 22.0499 15.7787H29.013V16.9392H22.0499C21.7294 16.9392 21.4696 16.6794 21.4696 16.359ZM23.2104 18.0998H24.3709V23.3221H23.2104V18.0998ZM24.3709 30.2852H23.2104V26.8037H24.3709V30.2852ZM22.0499 25.6431C21.7294 25.6431 21.4696 25.3833 21.4696 25.0629C21.4696 24.7424 21.7294 24.4826 22.0499 24.4826H30.1735V25.6431H22.0499ZM32.4946 24.4826C32.815 24.4826 33.0748 24.7424 33.0748 25.0629C33.0748 25.3833 32.815 25.6431 32.4946 25.6431H31.334V24.4826H32.4946ZM30.1735 23.3221H25.5314V18.0998H29.013V19.8405C29.013 20.161 29.2728 20.4208 29.5933 20.4208H30.1735V23.3221Z" fill="#92C100"/>
<path d="M12.186 5.33411H5.22284C4.90239 5.33411 4.64258 5.59392 4.64258 5.91437V16.359C4.64258 16.6795 4.90239 16.9393 5.22284 16.9393H12.186C12.5064 16.9393 12.7662 16.6795 12.7662 16.359V5.91437C12.7662 5.59392 12.5064 5.33411 12.186 5.33411ZM11.6057 15.7788H5.8031V6.49463H11.6057V15.7788Z" fill="#92C100"/>
<path d="M11.6053 21.0011C11.6053 19.3989 10.3063 18.0998 8.70403 18.0998C7.1018 18.0998 5.80273 19.3989 5.80273 21.0011C5.80273 22.6036 7.1018 23.9024 8.70403 23.9024C10.3057 23.9007 11.6034 22.6028 11.6053 21.0011ZM8.70403 22.7419C7.85716 22.7436 7.13269 22.1341 6.98904 21.2994C6.84567 20.465 7.32507 19.6485 8.12377 19.3671V20.4208C8.12377 20.7413 8.38359 21.0011 8.70403 21.0011C9.02448 21.0011 9.28429 20.7413 9.28429 20.4208V19.3671C10.083 19.6485 10.5624 20.465 10.419 21.2994C10.2754 22.1341 9.55091 22.7436 8.70403 22.7419Z" fill="#92C100"/>
<path d="M7.54388 26.2234H5.22284C4.90239 26.2234 4.64258 26.4833 4.64258 26.8037C4.64258 27.1242 4.90239 27.384 5.22284 27.384H7.54388C7.86433 27.384 8.12414 27.1242 8.12414 26.8037C8.12414 26.4833 7.86433 26.2234 7.54388 26.2234Z" fill="#92C100"/>
<path d="M12.1855 26.2234H9.86444C9.54399 26.2234 9.28418 26.4833 9.28418 26.8037C9.28418 27.1242 9.54399 27.384 9.86444 27.384H12.1855C12.5059 27.384 12.7657 27.1242 12.7657 26.8037C12.7657 26.4833 12.5059 26.2234 12.1855 26.2234Z" fill="#92C100"/>
<path d="M8.70385 15.1985C9.98564 15.1985 11.0249 14.1596 11.0249 12.8775C11.0249 11.5957 9.98564 10.5565 8.70385 10.5565C7.42207 10.5565 6.38281 11.5957 6.38281 12.8775C6.38281 14.1596 7.42207 15.1985 8.70385 15.1985ZM8.70385 11.717C9.22887 11.7147 9.68956 12.0663 9.82584 12.5735C9.96212 13.0806 9.73971 13.6156 9.28412 13.8768V13.4578C9.28412 13.1373 9.0243 12.8775 8.70385 12.8775C8.38341 12.8775 8.12359 13.1373 8.12359 13.4578V13.8768C7.668 13.6156 7.44558 13.0806 7.58187 12.5735C7.71815 12.0663 8.17884 11.7147 8.70385 11.717Z" fill="#92C100"/>
</svg>
