<svg width="35" height="35" viewBox="0 0 35 35" fill="none" xmlns="http://www.w3.org/2000/svg">
<g clip-path="url(#clip0)">
<path d="M12.3178 6.41663C6.84338 6.42261 2.40715 10.8591 2.40116 16.3333V17.7042C1.00549 18.2001 0.0732422 19.5208 0.0732422 21.002C0.0732422 22.4831 1.00549 23.8038 2.40116 24.3V32.0833C2.40116 32.4054 2.66235 32.6666 2.9845 32.6666H3.696L4.16854 34.5579C4.23348 34.8177 4.46676 35 4.7345 35H6.4845C6.75224 35 6.98551 34.8177 7.05017 34.5579L7.52271 32.6666H17.1127L17.5852 34.5579C17.6501 34.8177 17.8834 35 18.1512 35H19.9012C20.1689 35 20.4022 34.8177 20.4668 34.5579L20.9394 32.6666H21.6512C21.9733 32.6666 22.2345 32.4054 22.2345 32.0833V24.3C23.6299 23.8038 24.5621 22.4831 24.5621 21.002C24.5621 19.5208 23.6299 18.2001 22.2345 17.7042V16.3333C22.2282 10.8591 17.792 6.42261 12.3178 6.41663ZM3.56783 16.3333C3.56783 11.5009 7.48511 7.58329 12.3178 7.58329C17.1503 7.58329 21.0678 11.5009 21.0678 16.3333V17.5C20.6699 17.5011 20.2754 17.57 19.9012 17.7042V16.3333C19.9012 12.1451 16.506 8.74996 12.3178 8.74996C8.12968 8.74996 4.7345 12.1451 4.7345 16.3333V17.7042C4.35994 17.57 3.96545 17.5011 3.56783 17.5V16.3333ZM7.06783 25.6666H17.5678V28H7.06783V25.6666ZM17.5678 21V24.5H7.06783V21C7.06698 20.0062 6.64258 19.06 5.90116 18.3983V16.3333C5.90116 12.7894 8.77397 9.91663 12.3178 9.91663C15.8614 9.91663 18.7345 12.7894 18.7345 16.3333V18.3983C17.9928 19.06 17.5684 20.0062 17.5678 21ZM6.02877 33.8333H5.18994L4.89827 32.6666H6.32044L6.02877 33.8333ZM19.4454 33.8333H18.6066L18.3149 32.6666H19.7371L19.4454 33.8333ZM23.4012 21C23.3986 22.108 22.6196 23.0624 21.5344 23.2866C21.2629 23.3421 21.0678 23.5808 21.0678 23.8577V31.5H3.56783V23.8582C3.56755 23.5814 3.37244 23.3427 3.10099 23.2871C1.89815 23.0416 1.09123 21.9057 1.25529 20.6892C1.41935 19.4724 2.49858 18.5909 3.72363 18.6729C4.94869 18.7549 5.90059 19.7721 5.90116 21V28.5833C5.90116 28.9054 6.16235 29.1666 6.4845 29.1666H18.1512C18.4733 29.1666 18.7345 28.9054 18.7345 28.5833V21C18.7345 19.7114 19.779 18.6666 21.0678 18.6666C22.3564 18.6666 23.4012 19.7114 23.4012 21Z" fill="#92C100"/>
<path d="M12.732 13.0025C12.4979 12.7866 12.1376 12.7866 11.9037 13.0025C11.8507 13.0583 11.8091 13.1236 11.7809 13.195C11.7189 13.3363 11.7189 13.497 11.7809 13.6382C11.8109 13.7089 11.8522 13.7741 11.9037 13.8308C12.1336 14.0564 12.5019 14.0564 12.732 13.8308C12.7833 13.7741 12.8246 13.7089 12.8545 13.6382C12.9166 13.497 12.9166 13.3363 12.8545 13.195C12.8263 13.1236 12.7847 13.0583 12.732 13.0025Z" fill="#92C100"/>
<path d="M10.982 15.3359C10.7479 15.12 10.3876 15.12 10.1537 15.3359C10.1007 15.3917 10.0591 15.4569 10.0309 15.5284C9.96885 15.6697 9.96885 15.8303 10.0309 15.9716C10.0609 16.0423 10.1022 16.1075 10.1537 16.1642C10.2104 16.2157 10.2753 16.257 10.346 16.2866C10.563 16.3798 10.8151 16.3311 10.982 16.1642C11.0333 16.1075 11.0746 16.0423 11.1045 15.9716C11.1666 15.8303 11.1666 15.6697 11.1045 15.5284C11.0763 15.4569 11.0347 15.3917 10.982 15.3359Z" fill="#92C100"/>
<path d="M14.4819 15.3359C14.315 15.1675 14.0629 15.1171 13.8439 15.208C13.6251 15.2988 13.483 15.513 13.4844 15.75C13.4833 15.8258 13.497 15.901 13.5246 15.9716C13.5591 16.0411 13.6024 16.106 13.6536 16.1641C13.8504 16.3601 14.1583 16.3903 14.3893 16.2356C14.6203 16.0813 14.7104 15.7853 14.6044 15.5284C14.5762 15.4569 14.5346 15.3917 14.4819 15.3359Z" fill="#92C100"/>
<path d="M12.732 17.6691C12.4979 17.4532 12.1376 17.4532 11.9037 17.6691C11.8522 17.7258 11.8106 17.791 11.7809 17.8617C11.7189 18.003 11.7189 18.1636 11.7809 18.3049C11.8109 18.3755 11.8522 18.4407 11.9037 18.4974C11.9604 18.549 12.0253 18.5903 12.096 18.6199C12.313 18.713 12.5651 18.6643 12.732 18.4974C12.7833 18.4407 12.8246 18.3755 12.8545 18.3049C12.9166 18.1636 12.9166 18.003 12.8545 17.8617C12.8248 17.791 12.7833 17.7258 12.732 17.6691Z" fill="#92C100"/>
<path d="M9.23199 17.6692C9.17503 17.618 9.11009 17.5764 9.03945 17.5468C8.82212 17.4553 8.57119 17.5037 8.40371 17.6692C8.35073 17.7251 8.30914 17.7903 8.28094 17.8618C8.21885 18.0031 8.21885 18.1637 8.28094 18.305C8.31085 18.3756 8.35215 18.4408 8.40371 18.4975C8.46039 18.5491 8.52533 18.5904 8.59597 18.62C8.73724 18.6824 8.89817 18.6824 9.03945 18.62C9.18585 18.567 9.30149 18.4517 9.35447 18.305C9.41656 18.1637 9.41656 18.0031 9.35447 17.8618C9.32485 17.7911 9.28326 17.7259 9.23199 17.6692Z" fill="#92C100"/>
<path d="M16.232 17.6691C15.9979 17.4532 15.6376 17.4532 15.4037 17.6691C15.3522 17.7258 15.3106 17.791 15.2809 17.8617C15.2189 18.003 15.2189 18.1636 15.2809 18.3049C15.3109 18.3755 15.3522 18.4407 15.4037 18.4974C15.4604 18.549 15.5253 18.5903 15.596 18.6199C15.7372 18.682 15.8982 18.682 16.0394 18.6199C16.1859 18.5669 16.3015 18.4516 16.3545 18.3049C16.4166 18.1636 16.4166 18.003 16.3545 17.8617C16.3248 17.791 16.2833 17.7258 16.232 17.6691Z" fill="#92C100"/>
<path d="M10.982 20.0026C10.9533 19.9761 10.9219 19.9527 10.8886 19.9325C10.8587 19.9094 10.8254 19.8918 10.7895 19.8801C10.7545 19.8624 10.7169 19.8505 10.6781 19.8451C10.6035 19.8277 10.5257 19.8277 10.4511 19.8451C10.4146 19.8513 10.379 19.8633 10.346 19.8801C10.3087 19.8929 10.2734 19.9106 10.2406 19.9325C10.2101 19.9542 10.1814 19.9775 10.1537 20.0026C10.1008 20.0584 10.0592 20.1236 10.031 20.1951C9.93812 20.4122 9.98655 20.6639 10.1537 20.8309C10.2104 20.8824 10.2754 20.9237 10.346 20.9533C10.4155 20.9858 10.4913 21.0018 10.5679 21C10.7228 21.0003 10.8715 20.9394 10.982 20.8309C11.1489 20.6639 11.1974 20.4122 11.1045 20.1951C11.0763 20.1236 11.0347 20.0584 10.982 20.0026Z" fill="#92C100"/>
<path d="M13.846 19.88C13.6996 19.933 13.5842 20.0483 13.531 20.195C13.4985 20.2642 13.4825 20.34 13.4845 20.4166C13.4828 20.5719 13.5438 20.7211 13.6534 20.8308C13.7634 20.9407 13.9126 21.0017 14.0679 21C14.1442 21.0017 14.2203 20.9857 14.2895 20.9533C14.4359 20.9003 14.5515 20.7849 14.6045 20.6382C14.637 20.569 14.6529 20.4933 14.6512 20.4166C14.6489 20.2623 14.5885 20.1141 14.482 20.0025C14.3143 19.837 14.0633 19.7886 13.846 19.88Z" fill="#92C100"/>
<path d="M12.732 22.3358C12.7032 22.3093 12.6719 22.286 12.6386 22.2658C12.6087 22.2427 12.5754 22.225 12.5395 22.2133C12.5044 22.1957 12.4668 22.1837 12.4281 22.1783C12.3535 22.1609 12.2757 22.1609 12.2011 22.1783C12.1646 22.1846 12.129 22.1965 12.096 22.2133C12.0587 22.2262 12.0234 22.2438 11.9906 22.2658C11.9601 22.2874 11.9314 22.3108 11.9037 22.3358C11.8522 22.3925 11.8106 22.4577 11.781 22.5284C11.7485 22.5976 11.7325 22.6733 11.7345 22.75C11.7317 22.9875 11.873 23.2028 12.092 23.2948C12.311 23.3866 12.5637 23.3364 12.7312 23.1681C12.8986 22.9998 12.9473 22.7468 12.8545 22.5284C12.8249 22.4577 12.7833 22.3925 12.732 22.3358Z" fill="#92C100"/>
<path d="M9.23202 22.3359C8.99789 22.12 8.63758 22.12 8.40374 22.3359C8.35219 22.3926 8.3106 22.4578 8.28098 22.5284C8.18812 22.7455 8.23655 22.9973 8.40374 23.1642C8.46042 23.2157 8.52536 23.257 8.596 23.2866C8.81304 23.3798 9.06511 23.3314 9.23202 23.1642C9.39893 22.9973 9.44735 22.7455 9.3545 22.5284C9.32488 22.4578 9.28329 22.3926 9.23202 22.3359Z" fill="#92C100"/>
<path d="M16.232 22.3358C16.0628 22.1726 15.8136 22.1247 15.596 22.2133C15.5248 22.2415 15.4593 22.2831 15.4037 22.3358C15.3522 22.3925 15.3106 22.4577 15.281 22.5283C15.2485 22.5976 15.2325 22.6733 15.2345 22.7499C15.2325 22.945 15.3291 23.1282 15.4915 23.2364C15.6541 23.3447 15.86 23.3635 16.0395 23.2865C16.1101 23.2569 16.1751 23.2153 16.232 23.1641C16.3989 22.9972 16.4473 22.7454 16.3545 22.5283C16.3249 22.4577 16.2833 22.3925 16.232 22.3358Z" fill="#92C100"/>
<path d="M9.23199 13.0025C8.99786 12.7866 8.63755 12.7866 8.40371 13.0025C8.35073 13.0583 8.30914 13.1236 8.28094 13.195C8.21885 13.3363 8.21885 13.497 8.28094 13.6382C8.31085 13.7089 8.35215 13.7741 8.40371 13.8308C8.63357 14.0564 9.00185 14.0564 9.23199 13.8308C9.28326 13.7741 9.32456 13.7089 9.35447 13.6382C9.41656 13.497 9.41656 13.3363 9.35447 13.195C9.32627 13.1236 9.28469 13.0583 9.23199 13.0025Z" fill="#92C100"/>
<path d="M16.0395 12.88C15.8976 12.8165 15.7358 12.8145 15.5923 12.874C15.4487 12.9335 15.3362 13.0498 15.281 13.195C15.2513 13.2651 15.2354 13.3403 15.2345 13.4166C15.2325 13.4932 15.2485 13.569 15.281 13.6382C15.3109 13.7089 15.3522 13.7741 15.4037 13.8308C15.6336 14.0563 16.0019 14.0563 16.232 13.8308C16.2833 13.7741 16.3246 13.7089 16.3545 13.6382C16.3844 13.5681 16.4001 13.493 16.4012 13.4166C16.4066 13.1791 16.2616 12.964 16.0395 12.88Z" fill="#92C100"/>
<path d="M34.4843 10.5C34.6515 10.5 34.8108 10.4282 34.9215 10.3026C35.0321 10.1773 35.0836 10.0104 35.0628 9.84432L33.8962 0.510986C33.8597 0.219035 33.6116 0 33.3177 0H23.9843C23.6901 0 23.442 0.219035 23.4056 0.510986L22.2389 9.84432C22.2181 10.0104 22.2697 10.1773 22.3805 10.3026C22.491 10.4282 22.6502 10.5 22.8177 10.5H28.0677V31.5H26.3177C25.351 31.5 24.5677 32.2836 24.5677 33.25V34.4167C24.5677 34.7388 24.8289 35 25.151 35H32.151C32.4731 35 32.7343 34.7388 32.7343 34.4167V33.25C32.7343 32.2836 31.9508 31.5 30.9843 31.5H29.2343V10.5H34.4843ZM31.5677 33.25V33.8333H25.7343V33.25C25.7343 32.9279 25.9955 32.6667 26.3177 32.6667H30.9843C31.3065 32.6667 31.5677 32.9279 31.5677 33.25ZM24.4993 1.16667H32.8024L33.8232 9.33333H23.4785L24.4993 1.16667Z" fill="#92C100"/>
</g>
<defs>
<clipPath id="clip0">
<rect width="35" height="35" fill="white"/>
</clipPath>
</defs>
</svg>
