<svg width="35" height="35" viewBox="0 0 35 35" fill="none" xmlns="http://www.w3.org/2000/svg">
<g clip-path="url(#clip0)">
<path d="M26.9787 13.8536H6.56157C5.35548 13.8536 4.37402 14.8351 4.37402 16.0412V17.4995C4.37402 22.703 7.24847 27.4223 11.8744 29.8155C12.2317 29.9992 12.6721 29.8606 12.8573 29.5019C13.0411 29.1446 12.9025 28.7042 12.5438 28.5189C8.40493 26.3781 5.83237 22.1561 5.83237 17.4995V16.0411C5.83237 15.6386 6.15907 15.3119 6.56157 15.3119H26.9787C27.3812 15.3119 27.7079 15.6386 27.7079 16.0411V17.4995C27.7079 22.156 25.1354 26.378 20.9951 28.5174C20.6363 28.7026 20.4978 29.1431 20.6815 29.5004C20.8113 29.7512 21.0665 29.8956 21.3305 29.8956C21.4442 29.8956 21.558 29.8693 21.6644 29.8139C26.2918 27.4221 29.1663 22.7043 29.1663 17.4994V16.0411C29.1663 14.8351 28.1848 13.8536 26.9787 13.8536Z" fill="#92C100"/>
<path d="M33.4877 28.8864C33.3739 28.6137 33.1085 28.4358 32.8139 28.4358H0.729838C0.43527 28.4358 0.169825 28.6137 0.0560722 28.8864C-0.0576804 29.1591 0.00500658 29.4727 0.213576 29.6813L1.84843 31.3175C2.81389 32.2815 4.09429 32.8124 5.45789 32.8124H28.083C29.4466 32.8124 30.7285 32.2816 31.6954 31.3175L33.3302 29.6813C33.5387 29.4727 33.6014 29.1591 33.4877 28.8864ZM30.6629 30.2865C29.9745 30.9748 29.0572 31.354 28.0845 31.354H5.45789C4.48518 31.354 3.56784 30.9748 2.87952 30.2865L2.4887 29.8956H31.0537L30.6629 30.2865Z" fill="#92C100"/>
<path d="M33.5897 17.2969C31.6253 16.0339 28.4869 17.4048 28.1354 17.5638C27.7693 17.7314 27.606 18.1631 27.7737 18.5307C27.9414 18.8982 28.3716 19.06 28.7406 18.8924C29.4435 18.573 31.6981 17.8161 32.8007 18.5263C33.298 18.8457 33.5415 19.4655 33.5415 20.4163C33.5415 23.3359 27.6526 25.1006 25.379 25.5352L24.8627 25.6373C24.4675 25.7146 24.2108 26.0981 24.2882 26.4933C24.3567 26.8404 24.6615 27.081 25.0027 27.081C25.0494 27.081 25.096 27.0767 25.1442 27.0665L25.6561 26.9658C26.0381 26.8929 34.9998 25.1356 34.9998 20.4163C34.9999 18.9492 34.5245 17.9006 33.5897 17.2969Z" fill="#92C100"/>
<path d="M22.4477 7.74601C23.6334 6.26429 23.6334 3.94405 22.4477 2.46232C22.1954 2.14732 21.7389 2.09482 21.4225 2.34857C21.1075 2.60089 21.0564 3.05877 21.3087 3.37378C22.0598 4.31149 22.0598 5.89678 21.3073 6.83743C20.1202 8.31915 20.1202 10.6394 21.3073 12.1211C21.4517 12.3019 21.6631 12.3953 21.8775 12.3953C22.0365 12.3953 22.1983 12.3428 22.3325 12.2349C22.6475 11.9825 22.6986 11.5232 22.4463 11.2097C21.6938 10.2719 21.6938 8.68666 22.4477 7.74601Z" fill="#92C100"/>
<path d="M18.0667 7.74602C19.2538 6.2643 19.2538 3.94406 18.0667 2.46233C17.8159 2.14732 17.3565 2.09626 17.0415 2.34858C16.7265 2.6009 16.6755 3.06028 16.9278 3.37379C17.6803 4.3115 17.6803 5.89679 16.9263 6.83743C15.7407 8.31916 15.7407 10.6394 16.9263 12.1211C17.0707 12.3019 17.2822 12.3953 17.4965 12.3953C17.6555 12.3953 17.8159 12.3428 17.9516 12.2349C18.2666 11.9826 18.3176 11.5247 18.0653 11.2097C17.3142 10.2719 17.3142 8.68667 18.0667 7.74602Z" fill="#92C100"/>
<path d="M13.6977 7.74748C14.8834 6.26575 14.8834 3.94551 13.6977 2.46379C13.4469 2.14878 12.9889 2.09628 12.6725 2.35004C12.3589 2.60085 12.3079 3.06024 12.5587 3.37381C13.3098 4.31152 13.3098 5.89681 12.5573 6.83745C11.3702 8.31918 11.3702 10.6394 12.5573 12.1211C12.7017 12.302 12.9131 12.3953 13.1275 12.3953C13.2865 12.3953 13.4483 12.3428 13.5825 12.2364C13.8975 11.9841 13.9486 11.5247 13.6963 11.2112C12.9438 10.2719 12.9438 8.68812 13.6977 7.74748Z" fill="#92C100"/>
</g>
<defs>
<clipPath id="clip0">
<rect width="35" height="35" fill="white"/>
</clipPath>
</defs>
</svg>
