<svg width="35" height="35" viewBox="0 0 35 35" fill="none" xmlns="http://www.w3.org/2000/svg">
<path d="M18.1341 0H8.64653C8.2816 0 7.98535 0.296244 7.98535 0.661179V34.3273C7.98535 34.6922 8.2816 34.9885 8.64653 34.9885H18.1341C18.4991 34.9885 18.7953 34.6922 18.7953 34.3273V0.661179C18.7953 0.296244 18.4991 0 18.1341 0ZM17.473 4.46278H15.84C15.475 4.46278 15.1788 4.75903 15.1788 5.12396C15.1788 5.4889 15.475 5.78514 15.84 5.78514H17.473V7.9934H15.84C15.475 7.9934 15.1788 8.28965 15.1788 8.65458C15.1788 9.01952 15.475 9.31576 15.84 9.31576H17.473V11.5438H14.3524C13.9874 11.5438 13.6912 11.8401 13.6912 12.205C13.6912 12.57 13.9874 12.8662 14.3524 12.8662H17.473V15.0745H15.84C15.475 15.0745 15.1788 15.3707 15.1788 15.7356C15.1788 16.1006 15.475 16.3968 15.84 16.3968H17.473V18.6117H15.84C15.475 18.6117 15.1788 18.9079 15.1788 19.2729C15.1788 19.6378 15.475 19.9341 15.84 19.9341H17.473V22.1225H14.3524C13.9874 22.1225 13.6912 22.4187 13.6912 22.7837C13.6912 23.1486 13.9874 23.4448 14.3524 23.4448H17.473V25.6531H15.84C15.475 25.6531 15.1788 25.9493 15.1788 26.3143C15.1788 26.6792 15.475 26.9755 15.84 26.9755H17.473V29.1837H15.84C15.475 29.1837 15.1788 29.48 15.1788 29.8449C15.1788 30.2098 15.475 30.5061 15.84 30.5061H17.473V33.6465H9.30771V1.32236H17.473V4.46278Z" fill="#92C100"/>
<path d="M26.3526 6.48601C26.7176 6.48601 27.0138 6.18976 27.0138 5.82483C27.0138 5.66738 26.9576 5.51466 26.8552 5.39498L24.8121 1.83792C24.629 1.52208 24.2244 1.41492 23.9085 1.59809C23.8084 1.65545 23.7258 1.73878 23.6685 1.83792L21.5593 5.49436C21.3769 5.81019 21.4852 6.21502 21.8013 6.39725C21.9025 6.45556 22.0175 6.48672 22.1346 6.48601H23.5825V28.5025H22.1346C21.7696 28.5011 21.472 28.7962 21.4708 29.1611C21.4701 29.2782 21.501 29.3932 21.5593 29.4942L23.6685 33.1506C23.8516 33.4665 24.2562 33.5736 24.5723 33.3904C24.6722 33.3331 24.7548 33.2498 24.8121 33.1506L26.9213 29.4942C27.1037 29.1783 26.9954 28.7735 26.6793 28.5913C26.578 28.533 26.4631 28.5018 26.346 28.5025H24.8981V6.48601H26.3526ZM25.2089 29.8249L24.2437 31.4975L23.2783 29.8249H25.2089ZM23.2783 5.16365L24.2437 3.49099L25.2089 5.16365H23.2783Z" fill="#92C100"/>
</svg>
